<svg xmlns="http://www.w3.org/2000/svg" viewBox="0 0 856.25 250.25"><defs><style>.cls-1{fill:#a1887f;}</style></defs><g id="Layer_2" data-name="Layer 2"><g id="Layer_1-2" data-name="Layer 1"><path class="cls-1" d="M93.07,260.22q-24.4,0-43.07-8.73a68.54,68.54,0,0,1-29.22-25q-10.55-16.28-10.54-39.16V178.9H49.39v8.43q0,19,11.75,28.46t31.93,9.49q20.48,0,30.57-8.13a25.55,25.55,0,0,0,10.09-20.78q0-8.73-5-14.16t-14.46-8.88a186.26,186.26,0,0,0-23-6.48l-6.93-1.5q-21.69-4.82-37.19-12.2t-23.8-19.43q-8.28-12-8.28-31.32t9.19-33q9.18-13.7,25.9-21.08T89.45,41q22.59,0,40.21,7.68a62.24,62.24,0,0,1,27.71,22.89q10.08,15.21,10.09,38.1v9H128.3v-9q0-12-4.66-19.43a27.28,27.28,0,0,0-13.41-10.84Q101.5,75.9,89.45,75.9q-18.08,0-26.65,6.77t-8.59,18.52a21.48,21.48,0,0,0,4.07,13.26q4.06,5.42,12.2,9a107.73,107.73,0,0,0,20.78,6.33l6.93,1.5a196.1,196.1,0,0,1,39.3,12.35q16.71,7.53,26,19.88t9.34,31.62q0,19.29-9.79,33.89t-27.71,22.89Q117.46,260.22,93.07,260.22Z" transform="translate(-10.24 -24.78)"/><path class="cls-1" d="M266,260.22q-22.29,0-39.3-9.49a66.72,66.72,0,0,1-26.51-26.8q-9.48-17.33-9.48-40.81V179.5q0-23.49,9.33-40.81a66,66,0,0,1,26.21-26.8q16.86-9.49,39.15-9.49,22,0,38.25,9.79a67.36,67.36,0,0,1,25.3,27.1q9,17.33,9,40.21v12.95H229.26q.6,15.36,11.44,25t26.51,9.64q16,0,23.49-6.93a48.7,48.7,0,0,0,11.44-15.36l31,16.27a96.61,96.61,0,0,1-12.2,17q-8,9.19-21.24,15.66T266,260.22Zm-36.44-96.08h69.87q-1.2-12.94-10.39-20.78t-23.94-7.83q-15.36,0-24.4,7.83T229.56,164.14Z" transform="translate(-10.24 -24.78)"/><path class="cls-1" d="M420,256q-14.78,0-23.95-9.18t-9.19-24.55V137.94H349.52V106.62h37.34V60.23h37.95v46.39h41v31.32h-41v77.7q0,9,8.44,9h28.91V256Z" transform="translate(-10.24 -24.78)"/><path class="cls-1" d="M588.89,164.72a6.93,6.93,0,0,1,5.74,2.88l49.61,66.33a7.17,7.17,0,0,1-5.75,11.47H539.28a7.17,7.17,0,0,1-5.75-11.47l49.61-66.33a7,7,0,0,1,5.75-2.88m0-29.63a36.59,36.59,0,0,0-29.47,14.77l-49.61,66.33C491.66,240.46,509,275,539.28,275h99.21c30.31,0,47.62-34.57,29.47-58.84l-49.6-66.33a36.6,36.6,0,0,0-29.47-14.77Z" transform="translate(-10.24 -24.78)"/><path class="cls-1" d="M588.89,54.41a6.93,6.93,0,0,1,5.74,2.88l49.61,66.33a7.17,7.17,0,0,1-5.75,11.47H539.28a7.17,7.17,0,0,1-5.75-11.47l49.61-66.33a7,7,0,0,1,5.75-2.88m0-29.63a36.58,36.58,0,0,0-29.47,14.76l-49.61,66.34c-18.15,24.27-.83,58.84,29.47,58.84h99.21c30.31,0,47.62-34.57,29.47-58.84l-49.6-66.34a36.59,36.59,0,0,0-29.47-14.76Z" transform="translate(-10.24 -24.78)"/><path class="cls-1" d="M828.65,54.41a8.22,8.22,0,0,1,8.21,8.21V237.19a8.22,8.22,0,0,1-8.21,8.21H731.38a8.22,8.22,0,0,1-8.22-8.21V62.62a8.22,8.22,0,0,1,8.22-8.21h97.27m0-29.63H731.38a37.84,37.84,0,0,0-37.84,37.84V237.19A37.84,37.84,0,0,0,731.38,275h97.27a37.84,37.84,0,0,0,37.84-37.84V62.62a37.84,37.84,0,0,0-37.84-37.84Z" transform="translate(-10.24 -24.78)"/><path class="cls-1" d="M780,179.76a15.13,15.13,0,1,0,14.88,15.13A15,15,0,0,0,780,179.76Z" transform="translate(-10.24 -24.78)"/><rect class="cls-1" x="754.96" y="64.46" width="29.62" height="63.96"/></g></g></svg>